# Blender v2.70 (sub 0) OBJ File: ''
# www.blender.org
o Cube_Cube.001
v 2.850000 1.698092 -0.450230
v 0.150000 1.354506 -0.151098
v 0.150000 1.288764 -0.061523
v 0.150000 1.303639 0.087219
v 2.850000 1.303639 0.087219
v 2.850000 1.551732 -0.419823
v 0.150000 1.698092 -0.450230
v 0.150000 2.092545 -0.987679
v 0.150000 1.844452 -0.480637
v 2.850000 1.910194 -0.570212
v 0.150000 1.880443 -0.867697
v 0.150000 1.683217 -0.598973
v 2.850000 1.946185 -0.957272
v 2.850000 2.092540 -0.987679
v 2.850000 1.712967 -0.301487
v 0.150000 1.712967 -0.301487
v 0.150000 1.647225 -0.211912
v 0.150000 1.515741 -0.032763
v 0.150000 1.449999 0.056812
v 2.850000 1.449999 0.056812
v 2.850000 1.515741 -0.032763
v 2.850000 1.647225 -0.211912
v 0.150000 1.551732 -0.419823
v 0.150000 1.485990 -0.330248
v 0.150000 1.500866 -0.181505
v 2.850000 1.288764 -0.061523
v 2.850000 1.354506 -0.151098
v 2.850000 1.500866 -0.181505
v 2.850000 1.485990 -0.330248
v 0.150000 2.107420 -0.838936
v 0.150000 2.041678 -0.749361
v 0.150000 1.910194 -0.570212
v 2.850000 1.844452 -0.480637
v 2.850000 2.041678 -0.749361
v 2.850000 2.107420 -0.838936
v 0.150000 1.946185 -0.957272
v 0.150000 1.895318 -0.718954
v 0.150000 1.748959 -0.688547
v 2.850000 1.683217 -0.598973
v 2.850000 1.748959 -0.688547
v 2.850000 1.895318 -0.718954
v 2.850000 1.880443 -0.867697
v 0.150000 1.288764 -0.061523
v 0.150000 1.288764 -0.061523
v 0.150000 1.288764 -0.061523
v 0.150000 1.354506 -0.151098
v 0.150000 1.354506 -0.151098
v 0.150000 1.354506 -0.151098
v 0.150000 1.303639 0.087219
v 0.150000 1.303639 0.087219
v 2.850000 1.551732 -0.419823
v 2.850000 1.551732 -0.419823
v 2.850000 1.551732 -0.419823
v 0.150000 1.551732 -0.419823
v 0.150000 1.551732 -0.419823
v 0.150000 1.551732 -0.419823
v 2.850000 1.303639 0.087219
v 2.850000 1.303639 0.087219
v 0.150000 1.647225 -0.211912
v 0.150000 1.647225 -0.211912
v 0.150000 1.647225 -0.211912
v 0.150000 1.485990 -0.330248
v 0.150000 1.485990 -0.330248
v 0.150000 1.485990 -0.330248
v 2.850000 1.647225 -0.211912
v 2.850000 1.647225 -0.211912
v 2.850000 1.647225 -0.211912
v 2.850000 1.485990 -0.330248
v 2.850000 1.485990 -0.330248
v 2.850000 1.485990 -0.330248
v 2.850000 1.449999 0.056812
v 2.850000 1.449999 0.056812
v 2.850000 1.449999 0.056812
v 2.850000 1.288764 -0.061523
v 2.850000 1.288764 -0.061523
v 2.850000 1.288764 -0.061523
v 0.150000 1.683217 -0.598973
v 0.150000 1.683217 -0.598973
v 0.150000 1.683217 -0.598973
v 0.150000 1.698092 -0.450230
v 0.150000 1.698092 -0.450230
v 0.150000 1.698092 -0.450230
v 0.150000 1.698092 -0.450230
v 0.150000 1.698092 -0.450230
v 2.850000 2.092540 -0.987679
v 2.850000 2.092540 -0.987679
v 2.850000 1.946185 -0.957272
v 2.850000 1.946185 -0.957272
v 2.850000 1.946185 -0.957272
v 2.850000 1.844452 -0.480637
v 2.850000 1.844452 -0.480637
v 2.850000 1.844452 -0.480637
v 0.150000 1.844452 -0.480637
v 0.150000 1.844452 -0.480637
v 0.150000 1.844452 -0.480637
v 2.850000 1.910194 -0.570212
v 2.850000 1.910194 -0.570212
v 2.850000 1.910194 -0.570212
v 0.150000 1.910194 -0.570212
v 0.150000 1.910194 -0.570212
v 0.150000 1.910194 -0.570212
v 2.850000 1.712967 -0.301487
v 2.850000 1.712967 -0.301487
v 2.850000 1.712967 -0.301487
v 2.850000 1.698092 -0.450230
v 2.850000 1.698092 -0.450230
v 2.850000 1.698092 -0.450230
v 2.850000 1.698092 -0.450230
v 2.850000 1.698092 -0.450230
v 0.150000 1.449999 0.056812
v 0.150000 1.449999 0.056812
v 0.150000 1.449999 0.056812
v 0.150000 1.515741 -0.032763
v 0.150000 1.515741 -0.032763
v 0.150000 1.515741 -0.032763
v 0.150000 1.500866 -0.181505
v 0.150000 1.500866 -0.181505
v 0.150000 1.500866 -0.181505
v 0.150000 1.500866 -0.181505
v 0.150000 1.500866 -0.181505
v 2.850000 1.354506 -0.151098
v 2.850000 1.354506 -0.151098
v 2.850000 1.354506 -0.151098
v 2.850000 1.500866 -0.181505
v 2.850000 1.500866 -0.181505
v 2.850000 1.500866 -0.181505
v 2.850000 1.500866 -0.181505
v 2.850000 1.500866 -0.181505
v 0.150000 1.748959 -0.688547
v 0.150000 1.748959 -0.688547
v 0.150000 1.748959 -0.688547
v 0.150000 1.895318 -0.718954
v 0.150000 1.895318 -0.718954
v 0.150000 1.895318 -0.718954
v 0.150000 1.895318 -0.718954
v 0.150000 1.895318 -0.718954
v 2.850000 1.748959 -0.688547
v 2.850000 1.748959 -0.688547
v 2.850000 1.748959 -0.688547
v 2.850000 1.683217 -0.598973
v 2.850000 1.683217 -0.598973
v 2.850000 1.683217 -0.598973
v 2.850000 1.895318 -0.718954
v 2.850000 1.895318 -0.718954
v 2.850000 1.895318 -0.718954
v 2.850000 1.895318 -0.718954
v 2.850000 1.895318 -0.718954
v 2.850000 1.880443 -0.867697
v 2.850000 1.880443 -0.867697
v 2.850000 1.880443 -0.867697
v 0.150000 1.712967 -0.301487
v 0.150000 1.712967 -0.301487
v 0.150000 1.712967 -0.301487
v 2.850000 1.515741 -0.032763
v 2.850000 1.515741 -0.032763
v 2.850000 1.515741 -0.032763
v 0.150000 2.107420 -0.838936
v 0.150000 2.107420 -0.838936
v 0.150000 2.107420 -0.838936
v 0.150000 2.092545 -0.987679
v 0.150000 2.092545 -0.987679
v 0.150000 2.041678 -0.749361
v 0.150000 2.041678 -0.749361
v 0.150000 2.041678 -0.749361
v 2.850000 2.041678 -0.749361
v 2.850000 2.041678 -0.749361
v 2.850000 2.041678 -0.749361
v 2.850000 2.107420 -0.838936
v 2.850000 2.107420 -0.838936
v 2.850000 2.107420 -0.838936
v 0.150000 1.946185 -0.957272
v 0.150000 1.946185 -0.957272
v 0.150000 1.946185 -0.957272
v 0.150000 1.880443 -0.867697
v 0.150000 1.880443 -0.867697
v 0.150000 1.880443 -0.867697
v 2.850000 1.698092 -1.525128
v 0.150000 1.354506 -1.824260
v 0.150000 1.288764 -1.913835
v 0.150000 1.303639 -2.062578
v 2.850000 1.303639 -2.062578
v 2.850000 1.551732 -1.555535
v 0.150000 1.698092 -1.525128
v 0.150000 2.092545 -0.987679
v 0.150000 1.844451 -1.494721
v 2.850000 1.910194 -1.405146
v 0.150000 1.880443 -1.107661
v 0.150000 1.683217 -1.376385
v 2.850000 1.946185 -1.018086
v 2.850000 2.092540 -0.987679
v 2.850000 1.712967 -1.673871
v 0.150000 1.712967 -1.673871
v 0.150000 1.647225 -1.763446
v 0.150000 1.515741 -1.942596
v 0.150000 1.449999 -2.032171
v 2.850000 1.449999 -2.032171
v 2.850000 1.515741 -1.942596
v 2.850000 1.647225 -1.763446
v 0.150000 1.551732 -1.555535
v 0.150000 1.485990 -1.645110
v 0.150000 1.500866 -1.793853
v 2.850000 1.288764 -1.913835
v 2.850000 1.354506 -1.824260
v 2.850000 1.500866 -1.793853
v 2.850000 1.485990 -1.645110
v 0.150000 2.107420 -1.136422
v 0.150000 2.041678 -1.225997
v 0.150000 1.910194 -1.405146
v 2.850000 1.844451 -1.494721
v 2.850000 2.041678 -1.225997
v 2.850000 2.107420 -1.136422
v 0.150000 1.946185 -1.018086
v 0.150000 1.895318 -1.256404
v 0.150000 1.748959 -1.286811
v 2.850000 1.683217 -1.376385
v 2.850000 1.748959 -1.286811
v 2.850000 1.895318 -1.256404
v 2.850000 1.880443 -1.107661
v 0.150000 1.288764 -1.913835
v 0.150000 1.288764 -1.913835
v 0.150000 1.288764 -1.913835
v 0.150000 1.354506 -1.824260
v 0.150000 1.354506 -1.824260
v 0.150000 1.354506 -1.824260
v 0.150000 1.303639 -2.062578
v 0.150000 1.303639 -2.062578
v 2.850000 1.551732 -1.555535
v 2.850000 1.551732 -1.555535
v 2.850000 1.551732 -1.555535
v 0.150000 1.551732 -1.555535
v 0.150000 1.551732 -1.555535
v 0.150000 1.551732 -1.555535
v 2.850000 1.303639 -2.062578
v 2.850000 1.303639 -2.062578
v 0.150000 1.647225 -1.763446
v 0.150000 1.647225 -1.763446
v 0.150000 1.647225 -1.763446
v 0.150000 1.485990 -1.645110
v 0.150000 1.485990 -1.645110
v 0.150000 1.485990 -1.645110
v 2.850000 1.647225 -1.763446
v 2.850000 1.647225 -1.763446
v 2.850000 1.647225 -1.763446
v 2.850000 1.485990 -1.645110
v 2.850000 1.485990 -1.645110
v 2.850000 1.485990 -1.645110
v 2.850000 1.449999 -2.032171
v 2.850000 1.449999 -2.032171
v 2.850000 1.449999 -2.032171
v 2.850000 1.288764 -1.913835
v 2.850000 1.288764 -1.913835
v 2.850000 1.288764 -1.913835
v 0.150000 1.683217 -1.376385
v 0.150000 1.683217 -1.376385
v 0.150000 1.683217 -1.376385
v 0.150000 1.698092 -1.525128
v 0.150000 1.698092 -1.525128
v 0.150000 1.698092 -1.525128
v 0.150000 1.698092 -1.525128
v 0.150000 1.698092 -1.525128
v 2.850000 2.092540 -0.987679
v 2.850000 2.092540 -0.987679
v 2.850000 1.946185 -1.018086
v 2.850000 1.946185 -1.018086
v 2.850000 1.946185 -1.018086
v 2.850000 1.844451 -1.494721
v 2.850000 1.844451 -1.494721
v 2.850000 1.844451 -1.494721
v 0.150000 1.844451 -1.494721
v 0.150000 1.844451 -1.494721
v 0.150000 1.844451 -1.494721
v 2.850000 1.910194 -1.405146
v 2.850000 1.910194 -1.405146
v 2.850000 1.910194 -1.405146
v 0.150000 1.910194 -1.405146
v 0.150000 1.910194 -1.405146
v 0.150000 1.910194 -1.405146
v 2.850000 1.712967 -1.673871
v 2.850000 1.712967 -1.673871
v 2.850000 1.712967 -1.673871
v 2.850000 1.698092 -1.525128
v 2.850000 1.698092 -1.525128
v 2.850000 1.698092 -1.525128
v 2.850000 1.698092 -1.525128
v 2.850000 1.698092 -1.525128
v 0.150000 1.449999 -2.032171
v 0.150000 1.449999 -2.032171
v 0.150000 1.449999 -2.032171
v 0.150000 1.515741 -1.942596
v 0.150000 1.515741 -1.942596
v 0.150000 1.515741 -1.942596
v 0.150000 1.500866 -1.793853
v 0.150000 1.500866 -1.793853
v 0.150000 1.500866 -1.793853
v 0.150000 1.500866 -1.793853
v 0.150000 1.500866 -1.793853
v 2.850000 1.354506 -1.824260
v 2.850000 1.354506 -1.824260
v 2.850000 1.354506 -1.824260
v 2.850000 1.500866 -1.793853
v 2.850000 1.500866 -1.793853
v 2.850000 1.500866 -1.793853
v 2.850000 1.500866 -1.793853
v 2.850000 1.500866 -1.793853
v 0.150000 1.748959 -1.286811
v 0.150000 1.748959 -1.286811
v 0.150000 1.748959 -1.286811
v 0.150000 1.895318 -1.256404
v 0.150000 1.895318 -1.256404
v 0.150000 1.895318 -1.256404
v 0.150000 1.895318 -1.256404
v 0.150000 1.895318 -1.256404
v 2.850000 1.748959 -1.286811
v 2.850000 1.748959 -1.286811
v 2.850000 1.748959 -1.286811
v 2.850000 1.683217 -1.376385
v 2.850000 1.683217 -1.376385
v 2.850000 1.683217 -1.376385
v 2.850000 1.895318 -1.256404
v 2.850000 1.895318 -1.256404
v 2.850000 1.895318 -1.256404
v 2.850000 1.895318 -1.256404
v 2.850000 1.895318 -1.256404
v 2.850000 1.880443 -1.107661
v 2.850000 1.880443 -1.107661
v 2.850000 1.880443 -1.107661
v 0.150000 1.712967 -1.673871
v 0.150000 1.712967 -1.673871
v 0.150000 1.712967 -1.673871
v 2.850000 1.515741 -1.942596
v 2.850000 1.515741 -1.942596
v 2.850000 1.515741 -1.942596
v 0.150000 2.107420 -1.136422
v 0.150000 2.107420 -1.136422
v 0.150000 2.107420 -1.136422
v 0.150000 2.092545 -0.987679
v 0.150000 2.092545 -0.987679
v 0.150000 2.041678 -1.225997
v 0.150000 2.041678 -1.225997
v 0.150000 2.041678 -1.225997
v 2.850000 2.041678 -1.225997
v 2.850000 2.041678 -1.225997
v 2.850000 2.041678 -1.225997
v 2.850000 2.107420 -1.136422
v 2.850000 2.107420 -1.136422
v 2.850000 2.107420 -1.136422
v 0.150000 1.946185 -1.018086
v 0.150000 1.946185 -1.018086
v 0.150000 1.946185 -1.018086
v 0.150000 1.880443 -1.107661
v 0.150000 1.880443 -1.107661
v 0.150000 1.880443 -1.107661
v 0.300000 0.000000 -0.200000
v 0.300000 0.000000 -1.800000
v 2.700000 0.000000 -1.800000
v 2.700000 0.000000 -0.200000
v 0.300000 1.500000 -0.200000
v 0.300000 1.500000 -1.800000
v 2.700000 1.500000 -1.800000
v 2.700000 1.500000 -0.200000
v 0.300000 2.092540 -1.000000
v 0.300000 0.000000 -1.000000
v 2.700000 2.092540 -1.000000
v 2.700000 0.000000 -1.000000
v 0.300000 0.000000 -0.200000
v 0.300000 1.500000 -0.200000
v 0.300000 1.500000 -1.800000
v 0.300000 0.000000 -1.800000
v 2.700000 1.500000 -1.800000
v 2.700000 0.000000 -1.800000
v 2.700000 1.500000 -0.200000
v 2.700000 0.000000 -0.200000
v 0.300000 2.092540 -1.000000
v 0.300000 0.000000 -1.000000
v 2.700000 2.092540 -1.000000
v 2.700000 0.000000 -1.000000
vt 0.600616 0.379620
vt 0.497564 0.297185
vt 0.497564 0.088504
vt 0.227054 0.422394
vt 0.033833 0.422394
vt 0.033833 0.088504
vt 0.853125 0.386496
vt 0.750074 0.304061
vt 0.750074 0.095380
vt 0.265699 0.088504
vt 0.458920 0.088504
vt 0.458920 0.422394
vt 0.600616 0.088504
vt 0.703667 0.088504
vt 0.853125 0.095380
vt 0.956176 0.095380
vt 0.227054 0.088504
vt 0.265699 0.422394
vt 0.703667 0.297185
vt 0.956176 0.304061
vt 0.702906 0.631791
vt 0.702906 0.649300
vt 0.000119 0.649304
vt 0.959843 0.532193
vt 0.990204 0.545848
vt 0.959970 0.559046
vt 0.702906 0.553234
vt 0.702906 0.570743
vt 0.000118 0.570745
vt 0.702906 0.583757
vt 0.000118 0.583760
vt 0.702906 0.601267
vt 0.000118 0.601270
vt 0.702906 0.618776
vt 0.000119 0.618779
vt 0.000119 0.631794
vt 0.702906 0.655433
vt 0.702906 0.672942
vt 0.000119 0.672947
vt 0.702907 0.685957
vt 0.000120 0.685962
vt 0.702907 0.703466
vt 0.000120 0.703471
vt 0.702907 0.720976
vt 0.000121 0.720981
vt 0.702907 0.733991
vt 0.000121 0.733996
vt 0.702907 0.751500
vt 0.000122 0.751506
vt 0.809892 0.545699
vt 0.839839 0.532368
vt 0.840477 0.559194
vt 0.869645 0.532191
vt 0.870283 0.559017
vt 0.900233 0.545690
vt 0.899770 0.545427
vt 0.930007 0.532228
vt 0.930133 0.559081
vt 0.990177 0.518817
vt 0.959491 0.532148
vt 0.959493 0.504950
vt 0.929271 0.532147
vt 0.929273 0.504949
vt 0.898589 0.518283
vt 0.899052 0.518548
vt 0.869108 0.531758
vt 0.868694 0.505039
vt 0.839421 0.531873
vt 0.839006 0.505154
vt 0.809070 0.518370
vt 0.706520 0.878621
vt 0.706520 0.896220
vt 0.000119 0.896222
vt 0.751658 0.613032
vt 0.721605 0.599454
vt 0.751652 0.586397
vt 0.706520 0.902384
vt 0.706520 0.919984
vt 0.000119 0.919986
vt 0.706520 0.933065
vt 0.000119 0.933068
vt 0.706520 0.950665
vt 0.000119 0.950668
vt 0.706520 0.968264
vt 0.000119 0.968268
vt 0.706520 0.981345
vt 0.000120 0.981350
vt 0.706520 0.998945
vt 0.000120 0.998949
vt 0.706521 0.799660
vt 0.706521 0.817259
vt 0.000118 0.817259
vt 0.706521 0.830340
vt 0.000118 0.830341
vt 0.706521 0.847940
vt 0.000118 0.847941
vt 0.706521 0.865539
vt 0.000118 0.865541
vt 0.000118 0.878623
vt 0.721605 0.572006
vt 0.751548 0.559238
vt 0.751063 0.585567
vt 0.780803 0.559372
vt 0.780318 0.585702
vt 0.810271 0.572935
vt 0.809815 0.572672
vt 0.840125 0.559331
vt 0.840462 0.586352
vt 0.870148 0.559238
vt 0.870484 0.586258
vt 0.900805 0.572919
vt 0.900373 0.599741
vt 0.870822 0.613179
vt 0.870544 0.586458
vt 0.841132 0.613256
vt 0.840855 0.586535
vt 0.810844 0.599711
vt 0.811304 0.599973
vt 0.781252 0.613030
vt 0.781247 0.586396
vt 0.000118 0.799659
vt 0.000118 0.553235
vt 0.000119 0.655437
vt 0.000119 0.902387
vn -1.000000 0.000000 0.000000
vn 0.000000 0.000000 -1.000000
vn 1.000000 0.000000 0.000000
vn 0.000000 0.000000 1.000000
vn 0.000000 0.995036 -0.099512
vn 0.000000 0.995037 -0.099510
vn 0.000000 0.203412 0.979093
vn 0.000000 0.806174 0.591678
vn 0.000000 0.806174 0.591679
vn 0.000000 0.806172 0.591681
vn 0.000000 -0.203412 -0.979093
vn 0.000000 -0.203413 -0.979093
vn 0.000000 -0.806175 -0.591677
vn 0.000000 -0.806172 -0.591681
vn 0.000000 -0.995036 0.099512
vn 0.000000 -0.995037 0.099510
vn 0.000000 -0.203411 -0.979093
vn 0.000000 -0.203411 -0.979094
vn 0.000000 -0.806173 -0.591679
vn 0.000000 -0.995037 0.099511
vn 0.000000 0.203411 0.979093
vn 0.000000 0.806173 0.591679
vn 0.000002 0.995033 -0.099544
vn 0.000002 0.995033 -0.099545
vn 0.000000 0.995036 -0.099511
vn -0.000000 -0.203417 -0.979092
vn 0.000000 -0.806173 -0.591680
vn 0.000000 -0.806173 -0.591681
vn 0.000000 -0.806176 -0.591676
vn 0.000000 0.995037 0.099510
vn 0.000000 0.995036 0.099512
vn 0.000000 0.203411 -0.979093
vn 0.000000 0.806174 -0.591679
vn 0.000000 0.806176 -0.591676
vn 0.000000 0.203410 -0.979094
vn 0.000000 0.806173 -0.591680
vn 0.000000 0.806174 -0.591678
vn 0.000000 -0.203414 0.979093
vn 0.000000 -0.203413 0.979093
vn 0.000000 -0.806174 0.591679
vn 0.000000 -0.995037 -0.099510
vn 0.000000 -0.806173 0.591680
vn 0.000000 -0.995037 -0.099507
vn 0.000000 0.203412 -0.979093
vn 0.000000 0.995036 0.099511
vn 0.000002 0.995033 0.099545
vn 0.000002 0.995033 0.099544
vn -0.000000 -0.203412 0.979093
vn -0.000000 -0.203418 0.979092
vn 0.000000 -0.806175 0.591677
vn 0.000000 -0.806173 0.591679
vn 1.000000 0.000003 0.000000
vn 1.000000 -0.000003 0.000000
vn 1.000000 -0.000002 0.000000
vn 1.000000 -0.000001 0.000000
vn 1.000000 0.000001 0.000000
vn 0.000000 0.806175 -0.591678
vn -0.000000 -0.203419 0.979092
vn 0.000000 -0.203411 0.979093
vn 1.000000 -0.000005 0.000000
s off
f 361/1/1 358/2/1 354/3/1
f 359/4/2 355/5/2 368/6/2
f 363/7/3 360/8/3 356/9/3
f 357/10/4 353/11/4 372/12/4
f 373/1/1 362/13/1 365/14/1
f 375/7/3 364/15/3 370/16/3
f 374/13/1 361/1/1 354/3/1
f 367/17/2 359/4/2 368/6/2
f 376/15/3 363/7/3 356/9/3
f 371/18/4 357/10/4 372/12/4
f 366/19/1 373/1/1 365/14/1
f 369/20/3 375/7/3 370/16/3
s 1
f 15/21/5 1/22/5 80/23/6
f 152/24/1 81/25/1 54/26/1
f 5/27/7 71/28/7 110/29/7
f 72/28/8 21/30/9 18/31/8
f 154/30/6 125/32/6 117/33/6
f 126/32/7 66/34/7 60/35/7
f 65/34/10 102/21/10 151/36/9
f 106/37/11 6/38/11 23/39/12
f 51/38/13 69/40/13 63/41/14
f 68/40/15 124/42/15 25/43/16
f 28/42/17 121/44/18 46/45/17
f 27/44/13 74/46/13 3/47/19
f 75/46/16 57/48/16 4/49/20
f 50/50/1 111/51/1 44/52/1
f 114/53/1 47/54/1 45/52/1
f 115/53/1 120/55/1 48/54/1
f 119/56/1 17/57/1 24/58/1
f 153/24/1 56/26/1 64/58/1
f 108/59/3 103/60/3 52/61/3
f 104/60/3 22/62/3 29/63/3
f 67/62/3 128/64/3 70/63/3
f 127/65/3 155/66/3 122/67/3
f 20/68/3 26/69/3 123/67/3
f 73/68/3 58/70/3 76/69/3
f 140/71/16 105/72/16 7/73/16
f 90/74/3 107/75/3 141/76/3
f 109/77/7 33/78/21 9/79/7
f 91/78/22 10/80/22 32/81/10
f 96/80/6 144/82/6 133/83/5
f 145/82/7 34/84/7 162/85/7
f 165/84/8 35/86/9 157/87/8
f 168/86/23 85/88/24 8/89/25
f 14/90/26 13/91/26 36/92/11
f 87/91/27 148/93/28 11/94/29
f 42/93/15 143/95/15 134/96/16
f 41/95/11 137/97/11 38/98/11
f 40/97/19 39/71/19 77/99/19
f 83/100/1 94/101/1 78/102/1
f 100/103/1 130/104/1 79/102/1
f 101/103/1 135/105/1 131/104/1
f 136/106/1 163/107/1 175/108/1
f 164/107/1 158/109/1 172/110/1
f 159/109/1 161/111/1 173/110/1
f 86/112/3 169/113/3 88/114/3
f 166/115/3 149/116/3 89/114/3
f 167/115/3 147/117/3 150/116/3
f 146/118/3 97/119/3 138/120/3
f 98/119/3 92/74/3 142/76/3
f 256/23/30 177/22/31 191/21/31
f 328/24/1 230/26/1 257/25/1
f 286/29/32 247/28/32 181/27/32
f 194/31/33 197/30/34 248/28/34
f 293/33/30 301/32/31 330/30/31
f 236/35/35 242/34/35 302/32/35
f 327/36/36 278/21/37 241/34/37
f 199/39/38 182/38/39 282/37/39
f 239/41/40 245/40/40 227/38/40
f 201/43/41 300/42/41 244/40/41
f 222/45/38 297/44/38 204/42/38
f 179/47/40 250/46/42 203/44/42
f 180/49/41 233/48/43 251/46/43
f 226/50/1 220/52/1 287/51/1
f 288/51/1 221/52/1 223/54/1
f 291/53/1 224/54/1 296/55/1
f 295/56/1 200/58/1 193/57/1
f 240/58/1 232/26/1 329/24/1
f 284/59/3 228/61/3 279/60/3
f 229/61/3 205/63/3 198/62/3
f 243/62/3 246/63/3 304/64/3
f 303/65/3 298/67/3 331/66/3
f 299/67/3 202/69/3 196/68/3
f 249/68/3 252/69/3 234/70/3
f 183/73/41 281/72/41 316/71/41
f 266/74/3 317/76/3 283/75/3
f 185/79/44 209/78/32 285/77/44
f 208/81/33 186/80/33 267/78/33
f 309/83/30 320/82/30 272/80/30
f 338/85/44 210/84/44 321/82/44
f 333/87/37 211/86/36 341/84/36
f 184/89/45 261/88/46 344/86/47
f 336/121/48 212/92/48 189/91/49
f 187/94/50 324/93/51 263/91/51
f 310/96/41 319/95/41 218/93/41
f 214/98/48 313/97/48 217/95/48
f 253/99/40 215/71/40 216/97/40
f 259/100/1 254/102/1 270/101/1
f 255/102/1 306/104/1 276/103/1
f 277/103/1 307/104/1 311/105/1
f 312/106/1 351/108/1 339/107/1
f 340/107/1 352/108/1 348/110/1
f 335/109/1 349/110/1 337/111/1
f 262/112/3 264/114/3 345/113/3
f 265/114/3 325/116/52 342/115/53
f 343/115/3 326/116/3 323/117/3
f 322/118/3 314/120/3 273/119/3
f 315/120/54 318/76/53 268/74/55
f 16/36/6 15/21/5 80/23/6
f 49/122/7 5/27/7 110/29/7
f 19/29/8 72/28/8 18/31/8
f 113/31/6 154/30/6 117/33/6
f 116/33/7 126/32/7 60/35/7
f 59/35/9 65/34/10 151/36/9
f 84/123/12 106/37/11 23/39/12
f 55/39/14 51/38/13 63/41/14
f 62/41/16 68/40/15 25/43/16
f 118/43/17 28/42/17 46/45/17
f 2/45/19 27/44/13 3/47/19
f 43/47/20 75/46/16 4/49/20
f 112/51/1 114/53/1 45/52/1
f 61/57/1 153/24/1 64/58/1
f 53/61/3 104/60/3 29/63/3
f 156/66/3 20/68/3 123/67/3
f 12/99/16 140/71/16 7/73/16
f 82/124/7 109/77/7 9/79/7
f 93/79/10 91/78/22 32/81/10
f 99/81/5 96/80/6 133/83/5
f 132/83/21 145/82/7 162/85/7
f 31/85/8 165/84/8 157/87/8
f 30/87/6 168/86/23 8/89/25
f 160/121/11 14/90/26 36/92/11
f 171/92/29 87/91/27 11/94/29
f 174/94/16 42/93/15 134/96/16
f 37/96/17 41/95/11 38/98/11
f 129/98/19 40/97/19 77/99/19
f 95/101/1 100/103/1 79/102/1
f 176/108/1 164/107/1 172/110/1
f 170/113/3 166/115/3 89/114/3
f 139/120/56 98/119/3 142/76/3
f 192/36/30 256/23/30 191/21/31
f 225/122/32 286/29/32 181/27/32
f 195/29/33 194/31/33 248/28/34
f 289/31/30 293/33/30 330/30/31
f 292/33/35 236/35/35 302/32/35
f 235/35/36 327/36/36 241/34/37
f 260/123/38 199/39/38 282/37/39
f 231/39/40 239/41/40 227/38/40
f 238/41/41 201/43/41 244/40/41
f 294/43/38 222/45/38 204/42/38
f 178/45/40 179/47/40 203/44/42
f 219/47/41 180/49/41 251/46/43
f 290/53/1 288/51/1 223/54/1
f 237/57/1 240/58/1 329/24/1
f 280/60/3 229/61/3 198/62/3
f 332/66/3 299/67/3 196/68/3
f 188/99/41 183/73/41 316/71/41
f 258/124/44 185/79/44 285/77/44
f 269/79/33 208/81/33 267/78/33
f 275/81/30 309/83/30 272/80/30
f 308/83/44 338/85/44 321/82/44
f 207/85/57 333/87/37 341/84/36
f 206/87/30 184/89/45 344/86/47
f 190/90/58 336/121/48 189/91/49
f 347/92/50 187/94/50 263/91/51
f 350/94/41 310/96/41 218/93/41
f 213/96/59 214/98/48 217/95/48
f 305/98/40 253/99/40 216/97/40
f 271/101/1 255/102/1 276/103/1
f 334/109/1 340/107/1 348/110/1
f 346/113/60 265/114/3 342/115/53
f 274/119/3 315/120/54 268/74/55
